<?xml version="1.0" encoding="iso-8859-1"?>
<!-- Generator: Adobe Illustrator 19.0.0, SVG Export Plug-In . SVG Version: 6.00 Build 0)  -->
<svg version="1.1" id="Layer_1" xmlns="http://www.w3.org/2000/svg" xmlns:xlink="http://www.w3.org/1999/xlink" x="0px" y="0px"
	 viewBox="0 0 512 512" style="enable-background:new 0 0 512 512;" xml:space="preserve">
<g>
	<g>
		<path d="M368.183,55.339l-42.484-27.747l-10.41,29.127l-41.311,14.524c-5.513-2.405-11.59-3.747-17.978-3.747
			s-12.466,1.342-17.978,3.747l-41.311-14.525L186.3,27.593l-42.483,27.747L0,67.841l80.624,416.566h350.753L512,67.841
			L368.183,55.339z M298.532,97.567l20.64-7.257c1.728,5.712,3.248,13.297,3.248,22.31c0,9.013-1.521,16.599-3.248,22.31
			l-20.64-7.257c1.672-4.711,2.591-9.775,2.591-15.053S300.204,102.278,298.532,97.567z M256.001,100.473
			c6.698,0,12.146,5.449,12.146,12.145s-5.449,12.146-12.146,12.146s-12.145-5.449-12.145-12.146S249.303,100.473,256.001,100.473z
			 M192.829,90.309l20.64,7.258c-1.672,4.711-2.591,9.775-2.591,15.053c-0.001,5.276,0.918,10.341,2.591,15.052l-20.64,7.257
			c-1.728-5.711-3.248-13.297-3.248-22.31S191.101,96.021,192.829,90.309z M140.862,208.727l28.227-28.415l-51.569-68.411
			l42.803-27.956c-2.108,7.872-3.72,17.523-3.72,28.674c0,30.508,12.042,49.854,13.416,51.959l7.07,10.841l10.424-3.665
			l34.152,152.704L140.862,208.727z M218.84,160.74l19.181-6.744c5.513,2.405,11.59,3.747,17.979,3.747s12.466-1.343,17.979-3.748
			l19.18,6.744l-37.159,166.153L218.84,160.74z M371.14,208.726l-80.804,115.732l34.152-152.703l10.423,3.665l7.071-10.841
			c1.373-2.105,13.415-21.451,13.415-51.959c0-11.151-1.612-20.802-3.72-28.673l42.802,27.954l-51.567,68.41L371.14,208.726z"/>
	</g>
</g>
<g>
</g>
<g>
</g>
<g>
</g>
<g>
</g>
<g>
</g>
<g>
</g>
<g>
</g>
<g>
</g>
<g>
</g>
<g>
</g>
<g>
</g>
<g>
</g>
<g>
</g>
<g>
</g>
<g>
</g>
</svg>
