<svg class="svg-icon" style="width: 1em; height: 1em;vertical-align: middle;fill: currentColor;overflow: hidden;"
  viewBox="0 0 1024 1024" version="1.1" xmlns="http://www.w3.org/2000/svg">
  <path
    d="M511.996 81.86C274.448 81.86 81.86 274.444 81.86 512s192.588 430.144 430.136 430.144c237.566 0 430.15-192.588 430.15-430.144S749.562 81.86 511.996 81.86z"
    fill="rgba(220,220,220,0.25)" />
  <path
    d="M511.996 2C230.782 2 2 230.786 2 512s228.782 510 509.996 510C793.214 1022 1022 793.214 1022 512S793.214 2 511.996 2z m0 1003.662C239.792 1005.662 18.338 784.204 18.338 512S239.792 18.338 511.996 18.338c272.208 0 493.666 221.458 493.666 493.662S784.204 1005.662 511.996 1005.662z"
    fill="rgba(220,220,220,0.1)" />
  <path
    d="M354.6 290.83a57.74 57.74 0 0 1-41.964-41.96l-0.884-3.526-0.88 3.526a57.754 57.754 0 0 1-41.964 41.96l-3.53 0.888 3.53 0.884a57.748 57.748 0 0 1 41.964 41.96l0.88 3.526 0.884-3.526a57.736 57.736 0 0 1 41.964-41.96l3.53-0.884-3.53-0.888zM736.15 311.786a43.428 43.428 0 0 1-31.586-31.58l-0.662-2.654-0.672 2.654a43.42 43.42 0 0 1-31.582 31.58l-2.646 0.666 2.646 0.662a43.416 43.416 0 0 1 31.582 31.586l0.672 2.646 0.662-2.646a43.428 43.428 0 0 1 31.586-31.586l2.646-0.662-2.646-0.666zM606.77 186.066a68.648 68.648 0 0 1-49.896-49.892l-1.042-4.19-1.062 4.19a68.614 68.614 0 0 1-49.882 49.892l-4.184 1.052 4.184 1.05a68.586 68.586 0 0 1 49.882 49.89l1.062 4.188 1.042-4.188a68.62 68.62 0 0 1 49.896-49.89l4.194-1.05-4.194-1.052z"
    fill="#5D8EF9" />
  <path
    d="M343.612 415.036c0-11.48 1.216-22.676 3.494-33.48h-36.042c-27.372 0-49.622 21.858-50.282 49.058 0.3 2.17 3.184 18.5 23.052 28.882 13.252 6.93 34.736 6.85 44.884 6.85h23.262a161.25 161.25 0 0 1-8.368-51.31zM691.51 381.558h-28.202a162.244 162.244 0 0 1 3.492 33.48 161.3 161.3 0 0 1-8.368 51.314h54.508a50.072 50.072 0 0 1 28.868 9.114v-43.61c0-27.776-22.516-50.298-50.298-50.298z"
    fill="rgba(0,255,255,0.7)" />
  <path
    d="M505.208 253.438c-89.248 0-161.596 72.35-161.596 161.598a161.3 161.3 0 0 0 8.368 51.314h306.454a161.348 161.348 0 0 0 8.368-51.314c-0.002-89.248-72.348-161.598-161.594-161.598z"
    fill="#5D8EF9" />
  <path
    d="M505.208 293.74c-66.992 0-121.302 54.304-121.302 121.296a120.8 120.8 0 0 0 11.386 51.314H615.12a120.794 120.794 0 0 0 11.384-51.314c0-66.992-54.304-121.296-121.296-121.296z"
    fill="rgba(0,255,255,0.7)" />
  <path d="M505.208 333.488l-49.746 75.89 49.746 36.672 49.742-36.664z" fill="#FFFFFF" />
  <path d="M505.208 458.548l-49.746-39.182 30.272 46.984h38.944l30.272-46.984z" fill="#FFFFFF" />
  <path
    d="M712.942 466.35H328.716c-10.15 0-31.632 0.08-44.884-6.85-21.316-11.14-23.084-29.13-23.084-29.13V762.02c0 27.782 22.526 50.304 50.312 50.304h401.88c27.788 0 50.3-22.522 50.3-50.304V516.642c0.002-27.782-22.512-50.292-50.298-50.292z"
    fill="rgba(0,255,255,0.5)" />
  <path
    d="M627.34 585.212c-12.446 0-22.542 10.092-22.542 22.542v62.03c0 12.454 10.098 22.544 22.542 22.544h135.902v-107.116H627.34z"
    fill="#8AC9F9" />
  <path
    d="M648.506 616.402c-12.354 0-22.37 10.012-22.37 22.37 0 12.354 10.016 22.374 22.37 22.374 12.354 0 22.366-10.02 22.366-22.374-0.002-12.358-10.012-22.37-22.366-22.37z"
    fill="#FFE37B" />
</svg>
